<svg width="24" height="24" viewBox="0 0 24 24" fill="none" xmlns="http://www.w3.org/2000/svg">
<g clip-path="url(#clip0_1317_3443)">
<path d="M11.9989 0C8.66862 0 5.94336 2.70951 5.94336 6.03993V19.5898C5.94336 22.0216 7.92964 24 10.3615 24C12.7933 24 14.7796 22.0216 14.7796 19.5898V7.75433C14.7796 6.2211 13.5322 4.97371 11.9989 4.97371C10.4657 4.97371 9.21832 6.2211 9.21832 7.75433V18.0006C9.21832 18.5124 9.6333 18.9274 10.1452 18.9274C10.6571 18.9274 11.072 18.5124 11.072 18.0006V7.75433C11.072 7.24325 11.4878 6.82747 11.9989 6.82747C12.51 6.82747 12.9258 7.24325 12.9258 7.75433V19.5898C12.9258 20.9994 11.771 22.1463 10.3614 22.1463C8.95179 22.1463 7.79707 20.9994 7.79707 19.5898V6.03993C7.79707 3.73171 9.69068 1.85376 11.9989 1.85376C14.3072 1.85376 16.2008 3.73166 16.2008 6.03993V18.7221C16.2008 19.2339 16.6158 19.6489 17.1277 19.6489C17.6395 19.6489 18.0545 19.2339 18.0545 18.7221V6.03993C18.0545 2.70951 15.3293 0 11.9989 0Z" fill="#D8D8D8"/>
</g>
<defs>
<clipPath id="clip0_1317_3443">
<rect width="24" height="24" fill="white"/>
</clipPath>
</defs>
</svg>
