<svg width="48" height="48" viewBox="0 0 48 48" fill="none" xmlns="http://www.w3.org/2000/svg">
<path d="M44.322 34.292H42.58V32.5501C42.58 32.2016 42.493 31.8678 42.3333 31.5774V31.563C41.9849 30.8662 41.2445 30.3727 40.4026 30.3727C39.5606 30.3727 38.8204 30.8662 38.472 31.563V31.5774C38.3123 31.8678 38.2252 32.2016 38.2252 32.5501V34.292H36.4977C35.293 34.292 34.3203 35.2646 34.3203 36.4694C34.3203 37.6743 35.293 38.6468 36.4977 38.6468H38.2252V40.3887C38.2252 41.5936 39.1977 42.5662 40.4026 42.5662C41.6074 42.5662 42.58 41.5936 42.58 40.3887V38.6468H44.322C45.5268 38.6468 46.4994 37.6743 46.4994 36.4694C46.4994 35.2646 45.5268 34.292 44.322 34.292Z" fill="white"/>
<path d="M32.7387 38.6468C32.3613 38.008 32.1435 37.2678 32.1435 36.4693C32.1435 35.6855 32.3613 34.9307 32.7387 34.2919C33.421 33.1161 34.6404 32.2743 36.0775 32.1435C36.208 30.7064 37.05 29.4726 38.2258 28.7903C38.8645 28.4129 39.6048 28.1952 40.4032 28.1952C41.2016 28.1952 41.942 28.4129 42.5806 28.7903V15.4936C42.5806 12.8372 40.4323 10.6887 37.7903 10.6887H31.5339C31.3742 10.6887 31.2001 10.5872 31.1419 10.4564L29.9661 8.07577C29.1387 6.44998 27.484 5.43384 25.6694 5.43384H18.4114C16.6258 5.43384 14.942 6.46453 14.1291 8.09034L12.9532 10.4274C12.8806 10.5872 12.721 10.6887 12.5468 10.6887H6.30487C3.64837 10.6887 1.5 12.8372 1.5 15.4936V33.8565C1.5 36.4984 3.64837 38.6468 6.30487 38.6468H32.7387V38.6468ZM22.0403 16.7323C26.0673 16.7323 29.3225 20.0117 29.3225 24.0146C29.3225 28.0173 26.0673 31.2967 22.0403 31.2967C18.0375 31.2967 14.7581 28.0173 14.7581 24.0146C14.7581 20.0117 18.0375 16.7323 22.0403 16.7323Z" fill="white"/>
</svg>
