<svg width="136" height="136" viewBox="0 0 136 136" fill="none" xmlns="http://www.w3.org/2000/svg">
<circle opacity="0.5" cx="68" cy="68" r="46" stroke="#F6A607"/>
<circle opacity="0.1" cx="68" cy="68" r="67" stroke="#F6A607"/>
<circle cx="68" cy="68" r="32" fill="#F6A607"/>
<path d="M60.5724 80.8519C60.7403 80.9508 60.9258 81 61.1111 81C61.3158 81 61.5201 80.9399 61.7 80.8204L79.4778 69.0023C79.8027 68.7863 80 68.4076 80 68.0001C80 67.5926 79.8027 67.2139 79.4778 66.9979L61.7 55.1797C61.3574 54.9519 60.9257 54.9399 60.5724 55.1482C60.2192 55.3565 60 55.7522 60 56.1818V79.8182C60 80.2478 60.2192 80.6436 60.5724 80.8519Z" fill="white"/>
</svg>
