<svg width="154" height="147" viewBox="0 0 154 147" fill="none" xmlns="http://www.w3.org/2000/svg">
<g filter="url(#filter0_d_896_9115)">
<rect x="38" y="50.8865" width="64" height="51" rx="8" transform="rotate(-20.953 38 50.8865)" fill="white"/>
<g clip-path="url(#clip0_896_9115)">
<path d="M69.8693 82.3461C69.6107 82.4451 69.3165 82.4513 69.0392 82.3429C68.844 82.2653 64.2152 80.4143 62.951 77.1128C61.9893 74.6013 63.1299 71.822 65.4929 70.9172C67.8558 70.0124 70.561 71.319 71.5227 73.8305C72.7875 77.1334 70.5783 81.6012 70.4849 81.7893C70.3509 82.0552 70.1278 82.2471 69.8693 82.3461Z" fill="#58CC4E"/>
<path d="M88.4909 76.8523L70.4132 83.7747C69.8218 84.0011 69.1579 83.7049 68.9315 83.1135C68.705 82.522 69.0012 81.8582 69.5926 81.6317L87.6703 74.7094C87.8732 74.6317 87.9156 74.473 87.9156 74.3534C87.9157 74.2338 87.8743 74.0743 87.6729 73.9975L74.8785 69.0371C73.8387 68.6359 73.1679 67.6543 73.1697 66.5381C73.1723 65.4199 73.8474 64.4407 74.8903 64.0413L87.2535 59.3072C87.8449 59.0807 88.5088 59.3769 88.7352 59.9683C88.9617 60.5598 88.6655 61.2236 88.0741 61.4501L75.7108 66.1842C75.508 66.2619 75.4656 66.4207 75.4655 66.5403C75.4654 66.6599 75.5068 66.8193 75.7083 66.8962L88.5026 71.8566C89.5425 72.2578 90.2132 73.2393 90.2114 74.3555C90.2088 75.4737 89.5338 76.453 88.4909 76.8523Z" fill="#58CC4E"/>
<path d="M80.1431 40.7352C76.2044 42.2434 74.2423 46.7148 75.7692 50.7021C77.8769 56.2065 86.1098 59.1919 86.4605 59.3165C86.7261 59.4113 87.0061 59.4024 87.2547 59.3072C87.5033 59.212 87.7176 59.0316 87.852 58.7836C88.0298 58.4567 92.1631 50.7361 90.0553 45.2316C88.5285 41.2444 84.0818 39.227 80.1431 40.7352ZM83.9724 50.7355C82.3966 51.3389 80.6245 50.5481 80.0211 48.9724C79.4177 47.3966 80.2085 45.6245 81.7842 45.0211C83.36 44.4177 85.1321 45.2084 85.7355 46.7842C86.3389 48.3599 85.5482 50.1321 83.9724 50.7355Z" fill="#58CC4E"/>
</g>
</g>
<defs>
<filter id="filter0_d_896_9115" x="-2" y="-2" width="158.004" height="150.514" filterUnits="userSpaceOnUse" color-interpolation-filters="sRGB">
<feFlood flood-opacity="0" result="BackgroundImageFix"/>
<feColorMatrix in="SourceAlpha" type="matrix" values="0 0 0 0 0 0 0 0 0 0 0 0 0 0 0 0 0 0 127 0" result="hardAlpha"/>
<feOffset dy="10"/>
<feGaussianBlur stdDeviation="20"/>
<feComposite in2="hardAlpha" operator="out"/>
<feColorMatrix type="matrix" values="0 0 0 0 0 0 0 0 0 0.0425 0 0 0 0 0.125 0 0 0 0.12 0"/>
<feBlend mode="normal" in2="BackgroundImageFix" result="effect1_dropShadow_896_9115"/>
<feBlend mode="normal" in="SourceGraphic" in2="effect1_dropShadow_896_9115" result="shape"/>
</filter>
<clipPath id="clip0_896_9115">
<rect width="36.7145" height="36.7145" fill="white" transform="translate(53 51.1292) rotate(-20.953)"/>
</clipPath>
</defs>
</svg>
