<svg width="156" height="140" viewBox="0 0 156 140" fill="none" xmlns="http://www.w3.org/2000/svg">
<g filter="url(#filter0_d_896_9414)">
<rect x="37" y="71.8259" width="64" height="51" rx="8" transform="rotate(-44.4596 37 71.8259)" fill="white"/>
<path d="M64.2005 71.0299C68.2242 72.3937 73.5154 71.542 75.7907 71.0628L78.1851 73.4658L75.9305 82.1786L89.5237 68.6343L80.7365 70.8746L78.3666 68.4961C78.8538 66.2223 79.7245 60.9342 78.3752 56.9056C82.4639 51.8901 78.2794 45.225 75.3521 42.2871C75.0167 41.9505 74.5594 41.7629 74.0807 41.7656C73.602 41.7682 73.1411 41.9609 72.7995 42.3013L49.6161 65.4012C49.2745 65.7416 49.0801 66.2017 49.0758 66.6804C49.0714 67.1591 49.2573 67.6171 49.5927 67.9538C52.52 70.8916 59.17 75.1001 64.2005 71.0299ZM76.2375 53.4795L71.4649 48.6896L73.9413 46.2221C75.2605 47.9367 77.1152 50.9537 76.2375 53.4795ZM56.0092 64.0896L60.7819 68.8795C58.2527 69.7482 55.2418 67.8821 53.5328 66.5571L56.0092 64.0896Z" fill="#F6A607"/>
<path d="M97.5165 60.669C97.0037 61.1788 96.3126 61.4674 95.5948 61.4714C94.877 61.4754 94.1911 61.1944 93.6876 60.6902C93.5199 60.5219 93.2912 60.4281 93.0519 60.4295C92.8125 60.4308 92.5821 60.5271 92.4113 60.6973C92.2405 60.8675 92.1433 61.0976 92.1412 61.3369C92.139 61.5762 92.232 61.8053 92.3996 61.9736C92.902 62.4789 93.1805 63.1658 93.1739 63.8836C93.1673 64.6014 92.8763 65.2914 92.3646 65.8023C92.1938 65.9725 92.0966 66.2026 92.0944 66.4419C92.0923 66.6813 92.1852 66.9103 92.3529 67.0786C92.5206 67.2469 92.7493 67.3407 92.9887 67.3394C93.228 67.338 93.4584 67.2417 93.6292 67.0715C94.142 66.5617 94.8331 66.2731 95.5509 66.2692C96.2687 66.2652 96.9546 66.5461 97.4581 67.0503C97.6258 67.2186 97.8545 67.3124 98.0938 67.3111C98.3332 67.3097 98.5636 67.2134 98.7344 67.0432C98.9052 66.873 99.0024 66.643 99.0045 66.4036C99.0067 66.1643 98.9138 65.9353 98.7461 65.767C98.2437 65.2617 97.9652 64.5748 97.9718 63.857C97.9784 63.1392 98.2694 62.4491 98.7811 61.9382C98.9519 61.768 99.0491 61.5379 99.0513 61.2986C99.0535 61.0593 98.9605 60.8302 98.7928 60.6619C98.6251 60.4936 98.3964 60.3998 98.157 60.4012C97.9177 60.4025 97.6873 60.4988 97.5165 60.669Z" fill="#F6A607"/>
<path d="M83.4152 51.6683C83.2444 51.8384 83.1473 52.0685 83.1451 52.3079C83.1429 52.5472 83.2359 52.7762 83.4036 52.9445C83.9059 53.4498 84.1844 54.1367 84.1778 54.8545C84.1712 55.5723 83.8802 56.2624 83.3685 56.7733C83.1977 56.9435 83.1005 57.1735 83.0984 57.4129C83.0962 57.6522 83.1891 57.8812 83.3568 58.0495C83.5245 58.2178 83.7532 58.3117 83.9926 58.3103C84.2319 58.309 84.4623 58.2126 84.6331 58.0425C85.1459 57.5326 85.837 57.2441 86.5548 57.2401C87.2726 57.2361 87.9585 57.517 88.462 58.0212C88.6297 58.1895 88.8584 58.2834 89.0977 58.282C89.3371 58.2807 89.5675 58.1843 89.7383 58.0142C89.9091 57.844 90.0063 57.6139 90.0085 57.3746C90.0106 57.1352 89.9177 56.9062 89.75 56.7379C89.2476 56.2326 88.9691 55.5457 88.9757 54.8279C88.9823 54.1101 89.2733 53.4201 89.785 52.9091C89.9558 52.739 90.053 52.5089 90.0552 52.2695C90.0574 52.0302 89.9644 51.8012 89.7967 51.6329C89.629 51.4646 89.4003 51.3708 89.161 51.3721C88.9216 51.3734 88.6912 51.4698 88.5204 51.64C88.0076 52.1498 87.3165 52.4383 86.5987 52.4423C85.8809 52.4463 85.195 52.1654 84.6915 51.6612C84.5238 51.4929 84.2951 51.3991 84.0558 51.4004C83.8164 51.4017 83.586 51.4981 83.4152 51.6683Z" fill="#F6A607"/>
<path d="M71.8397 77.4018C71.672 77.2335 71.4433 77.1397 71.2039 77.141C70.9646 77.1423 70.7342 77.2387 70.5634 77.4089C70.0506 77.9187 69.3595 78.2073 68.6417 78.2112C67.9239 78.2152 67.238 77.9343 66.7345 77.4301C66.5668 77.2618 66.3381 77.168 66.0988 77.1693C65.8594 77.1706 65.629 77.267 65.4582 77.4372C65.2874 77.6074 65.1902 77.8374 65.188 78.0768C65.1858 78.3161 65.2788 78.5451 65.4465 78.7134C65.9489 79.2187 66.2273 79.9056 66.2208 80.6234C66.2142 81.3412 65.9232 82.0313 65.4115 82.5422C65.2407 82.7124 65.1435 82.9425 65.1413 83.1818C65.1391 83.4211 65.2321 83.6502 65.3998 83.8185C65.5675 83.9868 65.7962 84.0806 66.0355 84.0792C66.2749 84.0779 66.5053 83.9816 66.6761 83.8114C67.1889 83.3016 67.88 83.013 68.5978 83.009C69.3156 83.005 70.0015 83.286 70.505 83.7902C70.6727 83.9585 70.9013 84.0523 71.1407 84.0509C71.38 84.0496 71.6105 83.9533 71.7813 83.7831C71.9521 83.6129 72.0492 83.3828 72.0514 83.1435C72.0536 82.9041 71.9606 82.6751 71.7929 82.5068C71.2906 82.0015 71.0121 81.3146 71.0187 80.5968C71.0253 79.879 71.3163 79.189 71.828 78.6781C71.9988 78.5079 72.096 78.2778 72.0981 78.0385C72.1003 77.7991 72.0074 77.5701 71.8397 77.4018Z" fill="#F6A607"/>
<path d="M82.5887 90.7215C82.9241 91.0581 83.3814 91.2457 83.8601 91.2431C84.3388 91.2404 84.7997 91.0477 85.1413 90.7074L98.0209 77.8741C98.3625 77.5337 98.5569 77.0736 98.5613 76.5949C98.5657 76.1162 98.3797 75.6582 98.0443 75.3215L91.7213 68.9756L76.2656 84.3756L82.5887 90.7215Z" fill="#F6A607"/>
</g>
<defs>
<filter id="filter0_d_896_9414" x="-3" y="-3" width="161.398" height="161.227" filterUnits="userSpaceOnUse" color-interpolation-filters="sRGB">
<feFlood flood-opacity="0" result="BackgroundImageFix"/>
<feColorMatrix in="SourceAlpha" type="matrix" values="0 0 0 0 0 0 0 0 0 0 0 0 0 0 0 0 0 0 127 0" result="hardAlpha"/>
<feOffset dy="10"/>
<feGaussianBlur stdDeviation="20"/>
<feComposite in2="hardAlpha" operator="out"/>
<feColorMatrix type="matrix" values="0 0 0 0 0 0 0 0 0 0.0425 0 0 0 0 0.125 0 0 0 0.12 0"/>
<feBlend mode="normal" in2="BackgroundImageFix" result="effect1_dropShadow_896_9414"/>
<feBlend mode="normal" in="SourceGraphic" in2="effect1_dropShadow_896_9414" result="shape"/>
</filter>
</defs>
</svg>
