<svg width="152" height="141" viewBox="0 0 152 141" fill="none" xmlns="http://www.w3.org/2000/svg">
<g filter="url(#filter0_d_896_9136)">
<rect x="39" y="44.7861" width="64" height="51" rx="8" transform="rotate(-14.2799 39 44.7861)" fill="white"/>
<path d="M89.0804 38.1982C88.2012 37.9534 87.2903 38.4678 87.0457 39.3467L85.9985 43.1072C87.3677 43.9475 88.2387 45.4092 88.3456 46.9942L90.2285 40.233C90.4734 39.3541 89.959 38.4432 89.0804 38.1982Z" fill="#58CC4E"/>
<path d="M87.6897 58.5642L83.2439 59.5012L82.8797 55.962L83.6084 58.3321L85.0966 58.0183L85.7516 55.8458C86.1002 54.6893 85.5862 53.479 84.5814 52.9033L85.6436 51.7316C85.3122 51.8998 84.9602 52.0321 84.5925 52.1226C83.5524 52.3786 82.4306 52.292 81.404 51.8358C81.0223 52.644 70.195 75.5594 69.6496 76.714C69.2031 77.6591 68.2188 78.221 67.1755 78.1229L65.2312 81.4386C64.688 82.3647 64.9986 83.5553 65.9246 84.0981C66.8503 84.6408 68.0411 84.3311 68.5842 83.4047L74.2424 73.7551C74.3068 73.6458 74.3603 73.5301 74.4018 73.4104C76.8392 66.3977 76.6829 66.8564 76.7114 66.7615L77.9388 67.1314L80.2415 72.5746L76.4379 77.7188C75.7998 78.5817 75.9821 79.7988 76.8453 80.4369C77.7108 81.0772 78.9271 80.8901 79.5633 80.0296L84.0261 73.9939C84.4348 73.4414 84.5213 72.7141 84.2532 72.0812L82.2702 67.3939L83.3064 63.9571C83.1672 63.9864 82.0007 64.2322 81.8696 64.2598C80.3461 64.581 78.9436 63.3434 79.0822 61.7748L79.7007 57.3427L80.1456 61.6654C80.246 62.6397 81.1689 63.315 82.1294 63.1126L88.3711 61.7974C88.3895 61.7934 88.4079 61.7892 88.4261 61.7847C89.2871 61.5728 89.8312 60.7144 89.647 59.8404C89.4585 58.9474 88.5824 58.376 87.6897 58.5642Z" fill="#58CC4E"/>
<path d="M68.5854 76.2119L80.2479 51.5283L78.9293 51.1308C78.0227 50.8574 77.0347 51.1106 76.3712 51.7955L58.9747 69.7538C58.4072 70.3397 58.5097 71.297 59.1886 71.7493L66.6802 76.7409C67.3434 77.1827 68.2447 76.9327 68.5854 76.2119Z" fill="#58CC4E"/>
<path d="M84.4998 43.7134C82.4945 43.1088 80.4011 44.2538 79.8043 46.2335C79.2035 48.2263 80.3319 50.3284 82.3244 50.929C84.3297 51.5336 86.4231 50.3885 87.0199 48.4089C87.6204 46.4162 86.4922 44.3139 84.4998 43.7134Z" fill="#58CC4E"/>
</g>
<defs>
<filter id="filter0_d_896_9136" x="-1" y="-1" width="154.602" height="145.21" filterUnits="userSpaceOnUse" color-interpolation-filters="sRGB">
<feFlood flood-opacity="0" result="BackgroundImageFix"/>
<feColorMatrix in="SourceAlpha" type="matrix" values="0 0 0 0 0 0 0 0 0 0 0 0 0 0 0 0 0 0 127 0" result="hardAlpha"/>
<feOffset dy="10"/>
<feGaussianBlur stdDeviation="20"/>
<feComposite in2="hardAlpha" operator="out"/>
<feColorMatrix type="matrix" values="0 0 0 0 0 0 0 0 0 0.0425 0 0 0 0 0.125 0 0 0 0.12 0"/>
<feBlend mode="normal" in2="BackgroundImageFix" result="effect1_dropShadow_896_9136"/>
<feBlend mode="normal" in="SourceGraphic" in2="effect1_dropShadow_896_9136" result="shape"/>
</filter>
</defs>
</svg>
