<svg width="16" height="16" viewBox="0 0 16 16" fill="none" xmlns="http://www.w3.org/2000/svg">
<path d="M8.29486 2.06481L10.0799 5.68481C10.1033 5.73226 10.1378 5.77338 10.1804 5.8047C10.223 5.83603 10.2726 5.85665 10.3249 5.86481L14.3249 6.44481C14.3836 6.45585 14.4382 6.48261 14.4829 6.52225C14.5275 6.56189 14.5606 6.61292 14.5786 6.66989C14.5966 6.72686 14.5987 6.78764 14.5849 6.84574C14.571 6.90384 14.5416 6.95709 14.4999 6.99981L11.6099 9.81481C11.5718 9.85193 11.5434 9.89768 11.5268 9.94817C11.5103 9.99866 11.5062 10.0524 11.5149 10.1048L12.1949 14.1048C12.2079 14.1683 12.2019 14.2341 12.1778 14.2942C12.1536 14.3543 12.1123 14.406 12.059 14.4427C12.0057 14.4795 11.9427 14.4998 11.878 14.5011C11.8132 14.5023 11.7496 14.4845 11.6949 14.4498L8.12486 12.5698C8.07777 12.5453 8.02545 12.5325 7.97236 12.5325C7.91926 12.5325 7.86695 12.5453 7.81986 12.5698L4.27486 14.4348C4.22016 14.4695 4.15647 14.4873 4.09172 14.4861C4.02697 14.4848 3.96402 14.4645 3.91071 14.4277C3.8574 14.391 3.8161 14.3393 3.79194 14.2792C3.76778 14.2191 3.76184 14.1533 3.77486 14.0898L4.45486 10.0898C4.46354 10.0374 4.45943 9.98366 4.44289 9.93317C4.42635 9.88268 4.39787 9.83693 4.35986 9.79981L1.49986 6.99981C1.45664 6.95691 1.42614 6.9029 1.41173 6.84374C1.39731 6.78459 1.39954 6.72259 1.41817 6.66463C1.43681 6.60666 1.47111 6.55498 1.5173 6.5153C1.56348 6.47562 1.61974 6.44949 1.67986 6.43981L5.67986 5.85981C5.73213 5.85165 5.78168 5.83103 5.82432 5.7997C5.86696 5.76838 5.90144 5.72726 5.92486 5.67981L7.70986 2.05981C7.73823 2.0066 7.78063 1.96219 7.83246 1.93138C7.8843 1.90058 7.94358 1.88457 8.00387 1.88508C8.06417 1.8856 8.12317 1.90262 8.17447 1.93431C8.22576 1.96599 8.2674 2.01113 8.29486 2.06481Z" fill="#F6A607"/>
</svg>
